PathFileType	4	(X/Y/Z)	C:\Users\WrightLab\Desktop\Jo\P3_4.trc
DataRate	CameraRate	NumFrames	NumMarkers	Units	OrigDataRate	OrigDataStartFrame	OrigNumFrames
100.00	100.00	       16	19	mm	100.00	320	       639
Frame#	Time	Headset_Front			Headset_Back			Headset_Left			Headset_Right			Left_Shoulder			Right_Shoulder			Sternum			C7			Left Elbow			Right Elbow			Left Wrist			Right Wrist			Left ASIS			Right ASIS			S2			Left Knee			Right Knee			Left Ankle			Right Ankle			
		X1	Y1	Z1	X2	Y2	Z2	X3	Y3	Z3	X4	Y4	Z4	X5	Y5	Z5	X6	Y6	Z6	X7	Y7	Z7	X8	Y8	Z8	X9	Y9	Z9	X10	Y10	Z10	X11	Y11	Z11	X12	Y12	Z12	X13	Y13	Z13	X14	Y14	Z14	X15	Y15	Z15	X16	Y16	Z16	X17	Y17	Z17	X18	Y18	Z18	X19	Y19	Z19	

320	3.190	-114.66838	1512.85132	756.36945	-174.50212	1598.24719	472.98764	-43.45906	1563.77185	568.75836	-240.92189	1534.22217	673.87103	9.20888	1320.38379	474.40564	-319.35739	1336.91907	613.05286	-97.41904	1218.65405	665.92456	-180.56479	1377.22998	493.66043	76.29215	989.37140	458.99240	-395.33890	993.55444	646.13556	136.35869	819.17310	564.07019	-329.48389	809.00977	768.98401	-7.88649	847.17480	593.21069	-218.69301	855.13892	727.21808	-225.76727	928.79175	477.05063	-84.88874	434.23148	454.93051	-132.57147	450.62930	763.58124	-234.70146	167.69127	303.38492	-69.77813	119.08464	768.94501	
321	3.200	-111.50993	1514.54089	765.48639				-40.04142	1565.58813	578.20575	-237.49229	1535.31140	682.38544	13.50720	1322.16772	483.54523	-316.04672	1337.59045	621.35480	-93.33208	1220.52380	675.79321	-177.62825	1378.96472	503.30811	78.49468	990.38904	467.23843	-391.07312	994.02393	653.42609	137.79124	819.59381	570.44965	-325.96683	808.42438	774.74976	-5.01053	847.56421	603.56995	-214.30611	856.89838	736.84601	-219.17409	930.05518	486.35538	-71.98109	433.27884	468.39987	-128.28397	450.99289	772.13733	-227.22867	173.62624	310.55432	-69.29810	120.01203	771.03088	
322	3.210	-108.80659	1516.53979	774.82910				-36.36512	1567.50208	587.04437	-234.25574	1537.28308	691.79767	17.25595	1323.91821	492.88986	-312.48721	1338.80310	629.50861	-90.31304	1222.99194	685.32904	-174.61646	1380.82776	512.28723	80.77088	991.83191	475.21884	-386.16797	994.72955	660.59412	138.94188	818.87811	577.26135	-321.91949	807.98834	780.54932	-0.85001	848.38159	614.53613	-209.90866	858.61322	745.71857	-212.17197	931.66852	495.98721	-58.24937	432.91367	483.72269	-125.43197	451.88763	779.67700	-217.49544	179.66682	319.18671	-67.38056	118.68440	773.48767	
323	3.220	-105.53667	1518.00134	783.91364				-32.90218	1569.12732	596.61511	-230.81882	1538.83655	700.00568	21.79543	1326.02747	502.15958	-309.23779	1340.08716	638.04108	-86.87198	1225.32605	694.68274	-169.20833	1381.32874	521.04810	82.66810	993.44623	483.59842	-382.23511	996.42853	667.84558	139.98712	819.79126	583.80347	-318.65390	808.45050	787.37811	3.99841	850.73517	626.94244	-207.17444	862.05829	753.78766	-205.49132	933.65643	504.57144	-44.42343	432.51291	498.97150	-124.03890	452.92398	785.75519	-207.23312	185.85901	328.29413	-67.52280	119.89059	774.84460	
324	3.230	-103.05992	1519.77588	793.23901				-29.60932	1570.93787	604.73370	-227.59415	1540.61548	709.00421	25.38315	1328.34082	511.49280	-305.47604	1341.55347	645.95813	-83.05820	1227.61035	703.37738	-165.98152	1383.54578	529.33722	83.79264	995.28839	492.28394	-377.39355	997.65338	674.82703	141.41199	820.47284	590.96387	-315.08344	809.59930	793.29901	8.27681	852.82245	638.45447	-204.72749	863.90045	763.64929	-198.33737	935.44751	512.91302	-30.68240	432.01215	515.66846	-122.49103	453.97302	791.16998	-196.13432	191.76624	338.38251	-67.49721	120.06976	777.59955	
325	3.240	-99.38296	1521.07678	802.10620				-25.99926	1572.37329	612.97675	-224.26593	1542.12122	717.80231	29.41925	1330.83240	520.39612	-301.83093	1343.18738	653.61023	-79.29023	1230.01331	713.34717	-161.36209	1384.20239	538.42725	86.12155	997.00720	500.49182	-373.71707	999.35309	681.83209	142.46475	821.31818	597.41052	-311.80225	810.53546	800.34601	12.53181	854.64417	649.67480	-203.02289	867.51624	771.44366	-191.54779	936.54883	521.53900	-16.98919	431.81763	532.96881	-122.67617	454.74286	796.16071	-184.59555	198.78601	349.57111	-66.59055	119.32947	778.48993	
326	3.250	-96.72192	1522.08472	811.19281				-22.68983	1573.83875	621.99219	-220.98645	1543.20105	726.60010	33.81916	1333.14966	529.38348	-298.22714	1344.76599	661.49042	-76.23950	1232.22937	722.33936	-157.49623	1385.61292	547.31500	87.90974	999.19153	508.37997	-369.34567	1000.70020	688.55908	144.12082	822.19287	603.97827	-308.30084	812.02765	807.04572	16.24092	856.80957	660.85748	-200.16461	868.80255	780.83545	-185.55099	937.75378	529.64331	-3.44812	431.69556	551.83771	-121.97295	454.84586	800.90125	-173.31673	205.56349	360.72867	-66.55081	119.03242	778.25122	
327	3.260	-93.91505	1523.46204	820.16260							-217.58052	1544.63428	734.84814	38.16729	1335.35632	538.84009	-294.52658	1346.16614	669.34137	-72.43359	1234.43188	731.72229	-153.13184	1387.45410	554.74414	90.63817	1001.10150	515.94342	-365.60266	1002.62018	695.60388	146.31535	823.42126	610.97821	-304.89349	813.39911	814.50299	20.39947	858.47089	671.68463	-197.71562	871.11639	786.82349	-179.32019	938.88843	537.12109	9.41877	432.00156	570.39893	-120.71059	453.33386	805.98126	-159.59866	212.57561	373.28705	-66.13586	118.65762	778.76892	
328	3.270	-90.94230	1524.44934	829.10059							-214.50671	1545.71460	743.55383	42.93948	1337.06946	548.32880	-290.80008	1347.72498	677.61774	-68.62568	1236.35742	740.70953	-149.73451	1389.31165	563.89014	93.01871	1002.78754	524.45911	-361.77896	1004.00842	702.49896	148.13718	824.07251	618.28778	-301.81787	814.80914	822.01532	24.43934	860.80548	682.64917	-195.89447	872.33606	797.08301	-173.72194	939.91803	545.09406	22.43220	433.29761	588.54474	-119.32530	452.56369	810.45294	-146.26109	218.85873	387.23038	-65.97134	118.93938	779.40204	
329	3.280	-87.81480	1525.52148	837.93671							-211.00221	1546.70459	751.72919	46.75986	1338.69104	557.80377	-287.11700	1348.99817	685.20404	-65.81615	1238.12073	749.86829	-145.45950	1390.86194	572.03638	96.00915	1004.36627	532.17938	-358.41687	1005.22736	709.55951	150.14357	824.77893	625.63403	-298.79434	816.45032	829.61279	30.96087	863.76294	693.98529	-194.15027	872.56390	803.10455	-168.63171	940.84344	553.19586	34.63495	434.22742	608.35187	-117.59851	451.56509	815.06787	-131.93304	225.24689	402.00729	-65.24776	118.46446	779.96216	
330	3.290	-85.14729	1526.61389	846.84766							-207.93860	1547.20203	760.23444	51.43111	1340.20557	566.52380	-283.48053	1350.20959	692.73438	-62.38274	1239.06824	758.68225	-140.97076	1391.33386	581.85693	98.97317	1005.48303	540.02441	-355.02603	1006.41827	717.10181	152.51787	825.69525	632.38458	-295.17194	817.79517	837.30457	33.60618	865.40759	703.60986	-191.13390	872.98889	811.78864	-163.85100	941.32361	560.92090	46.92565	436.83090	626.63477	-114.63342	450.78174	818.98993	-118.67310	231.12164	417.01010	-64.99055	119.08884	781.18890	
331	3.300	-82.42284	1527.83093	855.77142							-204.62056	1548.44287	768.72528	55.64168	1341.87329	575.91260	-279.93689	1351.46729	700.42419	-58.31735	1240.13110	766.75787	-136.63397	1392.99231	590.02808	103.04052	1007.11560	547.76160	-351.35989	1007.17877	724.30737	155.23523	826.48071	639.87378	-292.18729	819.68146	845.42181	37.19760	866.79559	712.81866	-189.83246	873.25000	817.23694	-159.18504	942.01556	569.09552	59.02857	439.51349	647.31464	-112.76036	450.34314	823.19525	-104.79911	236.85214	431.86365	-64.90668	119.49114	781.93182	
332	3.310	-79.35265	1528.89807	864.54810							-201.72614	1549.38025	776.83765	59.71036	1343.06787	585.55200	-276.27689	1352.87061	708.41077	-55.03347	1241.06824	775.34723	-132.57784	1394.79236	597.89954	106.49934	1007.92120	555.89026	-348.57816	1008.69678	731.66943	158.25093	827.24664	647.21741	-289.35123	819.97705	851.57416	40.41958	869.02789	723.35236	-187.67424	872.55865	821.70221	-155.19249	943.24542	576.37671	69.81435	442.00937	666.17511	-112.03165	450.99005	827.38287	-91.48943	241.94395	447.08432	-64.71430	119.54160	782.74689	
333	3.320	-76.34111	1529.60559	873.39996							-198.63649	1550.50647	785.46307	63.87786	1344.29993	593.86517	-272.71149	1353.87708	716.01294	-52.13738	1242.20569	784.05579	-127.99016	1395.92456	605.60541	110.13342	1009.10980	564.75995	-345.21231	1009.88934	739.41211	161.15352	827.70038	655.06128	-286.10486	822.25519	861.35028	44.09492	870.53894	731.79443	-184.78362	874.37378	833.59827	-151.12428	943.78943	584.05658	80.78967	445.43939	685.98804	-110.12186	451.13672	831.78058	-77.05317	246.86514	463.13464	-63.84225	119.24548	783.40692	
334	3.330	-73.68117	1530.92432	882.22778							-194.95982	1551.18030	793.47198	68.31780	1344.99951	604.21814	-269.38660	1354.98120	723.24786	-49.24955	1243.20776	792.39355	-124.43159	1397.18457	615.29065	115.54279	1010.35352	572.86108	-342.42273	1011.45728	746.63458	164.57048	828.43915	662.98688	-282.57544	823.98987	870.49451	47.58714	872.34900	741.11316	-181.83180	874.19000	840.03314	-147.02058	944.71539	591.33588	91.17986	448.59586	705.56934	-108.03705	451.67612	835.84387	-63.75253	251.77730	478.99167	-62.77308	119.39377	784.13043	
335	3.340	-70.85847	1531.37122	891.05365							-192.45767	1552.18176	802.24646	72.37685	1346.00317	613.06689	-265.88068	1356.17773	730.49402	-45.43126	1243.43896	800.71893	-120.20994	1398.24792	623.17383	120.14182	1011.14392	580.99774	-339.09790	1012.30383	754.49036	168.22890	829.26062	671.13525	-278.48868	826.52484	879.95294	51.00571	873.73950	750.28400	-179.16817	874.29163	846.47095	-143.14671	945.77625	598.82910	99.99595	451.76041	725.12384	-106.01796	451.73578	839.77069	-49.28658	255.11807	495.10440	-62.26176	119.81218	784.75537	
